<?xml version="1.0" encoding="UTF-8" standalone="no"?>
<!-- Created with Inkscape (http://www.inkscape.org/) -->

<svg
   width="453.57355"
   height="75.620789"
   viewBox="0 0 120.008 20.008"
   version="1.1"
   id="svg1"
   inkscape:version="1.3.2 (091e20e, 2023-11-25, custom)"
   sodipodi:docname="logo-background.svg"
   inkscape:export-filename="logo-exported.png"
   inkscape:export-xdpi="96"
   inkscape:export-ydpi="96"
   xml:space="preserve"
   xmlns:inkscape="http://www.inkscape.org/namespaces/inkscape"
   xmlns:sodipodi="http://sodipodi.sourceforge.net/DTD/sodipodi-0.dtd"
   xmlns:xlink="http://www.w3.org/1999/xlink"
   xmlns="http://www.w3.org/2000/svg"
   xmlns:svg="http://www.w3.org/2000/svg"><sodipodi:namedview
     id="namedview1"
     pagecolor="#ffffff"
     bordercolor="#000000"
     borderopacity="0.25"
     inkscape:showpageshadow="2"
     inkscape:pageopacity="0.0"
     inkscape:pagecheckerboard="0"
     inkscape:deskcolor="#d1d1d1"
     inkscape:document-units="mm"
     showgrid="true"
     inkscape:zoom="2.8364759"
     inkscape:cx="203.95026"
     inkscape:cy="66.279428"
     inkscape:window-width="1920"
     inkscape:window-height="992"
     inkscape:window-x="-8"
     inkscape:window-y="-8"
     inkscape:window-maximized="1"
     inkscape:current-layer="layer2"><inkscape:grid
       id="grid1"
       units="mm"
       originx="0.003999995"
       originy="0.003999995"
       spacingx="1"
       spacingy="1"
       empcolor="#0099e5"
       empopacity="0.30196078"
       color="#0099e5"
       opacity="0.14901961"
       empspacing="5"
       dotted="false"
       gridanglex="30"
       gridanglez="30"
       visible="true" /></sodipodi:namedview><defs
     id="defs1"><linearGradient
       id="linearGradient1"
       inkscape:collect="always"><stop
         style="stop-color:#ffffff;stop-opacity:1;"
         offset="0.62378979"
         id="stop1" /><stop
         style="stop-color:#000000;stop-opacity:0;"
         offset="1"
         id="stop2" /></linearGradient><radialGradient
       inkscape:collect="always"
       xlink:href="#linearGradient1"
       id="radialGradient2"
       cx="61.912498"
       cy="7.9375"
       fx="61.912498"
       fy="7.9375"
       r="61.9165"
       gradientTransform="matrix(0.96910249,0,0,0.16023605,4.8428421e-4,8.8114676)"
       gradientUnits="userSpaceOnUse" /><style
       class="style-fonts"
       id="style1">
      @font-face {
        font-family: &quot;Virgil&quot;;
        src: url(&quot;https://excalidraw.com/Virgil.woff2&quot;);
      }
      @font-face {
        font-family: &quot;Cascadia&quot;;
        src: url(&quot;https://excalidraw.com/Cascadia.woff2&quot;);
      }
      @font-face {
        font-family: &quot;Assistant&quot;;
        src: url(&quot;https://excalidraw.com/Assistant-Regular.woff2&quot;);
      }
    </style></defs><g
     inkscape:groupmode="layer"
     id="layer3"
     inkscape:label="Layer 3"
     style="display:none"
     transform="translate(0.004,0.004)"
     sodipodi:insensitive="true"><rect
       style="opacity:1;fill:#000000;stroke:#000000;stroke-width:0.00799999;paint-order:stroke fill markers"
       id="rect2"
       width="120"
       height="20"
       x="0"
       y="0"
       ry="0" /></g><g
     inkscape:label="Layer 1"
     inkscape:groupmode="layer"
     id="layer1"
     style="display:inline"
     transform="translate(0.004,0.004)"
     sodipodi:insensitive="true"><path
       style="display:inline;opacity:1;fill:url(#radialGradient2);stroke:#000000;stroke-width:0.0088025;paint-order:stroke fill markers"
       id="path1"
       sodipodi:type="arc"
       sodipodi:cx="60.000042"
       sodipodi:cy="10.083342"
       sodipodi:rx="59.999557"
       sodipodi:ry="9.9162579"
       sodipodi:start="0"
       sodipodi:end="6.2805371"
       sodipodi:arc-type="arc"
       d="M 119.9996,10.083342 A 59.999557,9.9162579 0 0 1 60.039765,19.999597 59.999557,9.9162579 0 0 1 5.3706367e-4,10.096472 59.999557,9.9162579 0 0 1 59.880874,0.1671033 59.999557,9.9162579 0 0 1 119.99939,10.057081"
       sodipodi:open="true" /></g><g
     inkscape:groupmode="layer"
     id="layer2"
     inkscape:label="Layer 2"><g
       id="g45"
       transform="matrix(0.03927316,0,0,0.03927316,50.166693,4.0087934)"
       style="display:inline"><g
         stroke-opacity="0.9"
         fill-opacity="0.9"
         stroke-linecap="round"
         transform="translate(140.06693,109.57402)"
         id="g2"><path
           d="m 2,1.74 c 0,0 0,0 0,0 m 0,0 c 0,0 0,0 0,0 M 0.82,15.29 C 4.05,8.13 11.69,5.93 13.28,0.95 M 0.82,15.29 C 5.58,10.55 10.3,5.09 13.28,0.95 M 1.61,26.57 C 8.44,21.67 10.45,13.34 23.91,0.91 M 1.61,26.57 C 7.29,20.05 10.6,15.19 23.91,0.91 M 9.61,29.56 C 17.67,19.28 31.07,7.47 34.54,0.88 M 9.61,29.56 C 17.52,21.8 24.79,11.77 34.54,0.88 M 20.24,29.52 C 25.03,22.57 30.11,15 45.17,0.84 M 20.24,29.52 C 26.11,23.12 31.57,16.03 45.17,0.84 M 30.87,29.49 C 35.98,22.24 42.24,14.68 55.8,0.81 M 30.87,29.49 C 41.12,17.33 49.75,6.13 55.8,0.81 M 41.5,29.45 C 48.69,21.26 60.35,11.08 66.43,0.77 M 41.5,29.45 C 50.82,19.42 58.35,10.75 66.43,0.77 M 52.13,29.42 C 57.7,21.66 65.14,14.33 77.06,0.74 M 52.13,29.42 C 62.39,18.97 70.14,6.79 77.06,0.74 M 62.11,30.14 C 70.54,21.45 79.6,8.06 87.69,0.7 M 62.11,30.14 C 67.83,23.05 72.86,16.31 87.69,0.7 M 72.74,30.1 C 76.71,25.4 83.4,19.19 98.32,0.67 M 72.74,30.1 C 78.51,23.93 83.52,17.96 98.32,0.67 M 83.37,30.07 C 88.97,21.46 95.58,16.2 108.95,0.64 M 83.37,30.07 C 90.19,22.31 95.48,15.85 108.95,0.64 M 94,30.03 c 8.63,-9.62 16.51,-17.56 24.93,-28.67 M 94,30.03 c 7.17,-8.64 14.09,-15.52 24.93,-28.67 M 104.63,30 C 114.44,20.12 122.79,6.17 129.56,1.32 M 104.63,30 c 6.59,-5.92 11.98,-14.84 24.93,-28.68 m -14.3,28.65 C 121.2,22.4 130.91,13.38 139.53,2.04 m -24.27,27.93 c 9.77,-9.2 18.54,-19.4 24.27,-27.93 m -13.64,27.89 c 5.45,-5.54 7.25,-8.87 15.74,-18.11 m -15.74,18.11 c 4.32,-3.87 7.57,-10.46 15.74,-18.11 m -5.11,18.08 c 1.45,-0.64 1.88,-2.59 5.25,-6.04 m -5.25,6.04 c 1.28,-1.26 2.87,-3.17 5.25,-6.04"
           stroke="#a5d8ff"
           stroke-width="1"
           fill="none"
           id="path1-4" /><path
           d="M 7.5,0 C 35.83,-1.59 67.05,0.2 134.3,0 M 7.5,0 c 41.85,0.59 85.35,-0.34 126.8,0 m 0,0 c 5.52,0.39 7.03,1.7 7.5,7.5 M 134.3,0 c 5.07,-1.57 8.04,2.13 7.5,7.5 m 0,0 c 0.61,4.41 -0.01,10.13 0,15 m 0,-15 c 0.55,5.32 -0.84,9.79 0,15 m 0,0 c 1.6,4.61 -3.91,7.77 -7.5,7.5 m 7.5,-7.5 c -1.81,5.17 -3.66,9.47 -7.5,7.5 m 0,0 C 107.35,28.65 82.11,27.64 7.5,30 m 126.8,0 C 93,31.99 50.35,30.39 7.5,30 m 0,0 C 1.26,29.9 1.58,28.76 0,22.5 M 7.5,30 C 2.09,31.91 -0.89,28.94 0,22.5 m 0,0 c 0.18,-3.86 0.65,-7.92 0,-15 m 0,15 c -0.27,-4.24 0.44,-9.29 0,-15 m 0,0 C -1.25,2.37 2.51,-1.24 7.5,0 M 0,7.5 C -1.19,4.61 3.73,1.26 7.5,0"
           stroke="#1971c2"
           stroke-width="2"
           fill="none"
           id="path2" /></g><g
         stroke-opacity="0.9"
         fill-opacity="0.9"
         transform="translate(178.46694,114.57402)"
         id="g3"><text
           x="32.5"
           y="14.016"
           font-family="Virgil, 'Segoe UI Emoji'"
           font-size="16px"
           fill="#1971c2"
           text-anchor="middle"
           style="white-space:pre"
           direction="ltr"
           dominant-baseline="alphabetic"
           id="text2-2">ComfyUI</text></g><g
         stroke-linecap="round"
         id="g5"><g
           transform="translate(102.24472,125.66132)"
           id="g4"><path
             d="m 1.16,-1.19 c 38.98,20.94 187.13,97.8 232.19,126.98 45.05,29.19 31.59,39.86 38.14,48.15 M 0.31,0.81 C 39.27,21.91 187.97,98.23 233,127.2 c 45.02,28.98 30.74,39.19 37.44,47.46"
             stroke="#e8590c"
             stroke-width="2"
             fill="none"
             id="path3" /></g></g><g
         stroke-linecap="round"
         transform="translate(305.35579,254.41682)"
         id="g6"><path
           d="m 25.4,-0.07 c 5.01,-0.23 11.09,2.19 15,5.64 3.91,3.44 7.54,9.79 8.45,15 0.9,5.22 -0.24,11.77 -3.02,16.29 -2.78,4.52 -8.72,9.03 -13.67,10.81 C 27.22,49.44 20.91,49.4 16.14,47.52 11.36,45.63 6.16,40.96 3.54,36.33 0.92,31.7 -0.52,24.89 0.44,19.74 1.41,14.59 5.02,8.73 9.32,5.44 13.62,2.15 23.13,0.75 26.23,0 c 3.1,-0.76 1.76,0.44 1.67,0.88 m 2.27,-0.02 c 5.06,0.78 11.62,4.78 14.76,8.99 3.14,4.21 4.47,11.09 4.1,16.28 -0.37,5.2 -2.77,11.1 -6.3,14.9 -3.53,3.79 -9.52,7.18 -14.9,7.88 C 22.44,49.6 14.87,48.2 10.43,45.21 5.99,42.23 2.52,36.16 1.19,30.99 -0.15,25.82 0.29,19 2.42,14.17 4.54,9.34 9.34,4.19 13.93,2 18.53,-0.19 27.37,1.19 29.99,1.02 32.61,0.86 29.64,0.6 29.63,1.02"
           stroke="none"
           stroke-width="0"
           fill="#b2f2bb"
           id="path5" /><path
           d="m 25.99,0.2 c 5.01,0.03 11.19,2.87 14.98,6.41 3.8,3.54 7.11,9.65 7.8,14.83 0.7,5.19 -0.8,11.88 -3.62,16.27 -2.82,4.39 -8.3,8.47 -13.32,10.08 -5.01,1.6 -11.89,1.63 -16.76,-0.46 C 10.2,45.25 5.04,40.01 2.61,35.28 0.17,30.56 -0.8,24.12 0.45,19 1.69,13.88 5.8,7.65 10.09,4.56 14.37,1.47 23.35,1.2 26.16,0.46 c 2.81,-0.73 0.78,-0.69 0.79,-0.31 m -4.57,0.33 c 4.88,-0.91 11.6,0.52 15.86,3.43 4.27,2.9 8.16,9.06 9.72,14.02 1.55,4.96 1.66,10.94 -0.39,15.72 -2.05,4.78 -7.13,10.38 -11.92,12.98 -4.79,2.59 -11.76,3.84 -16.81,2.58 C 13.78,47.95 8.55,43.4 5.31,39.09 2.07,34.78 -0.8,28.64 -0.62,23.36 -0.43,18.08 2.81,11.39 6.41,7.41 10,3.43 18.44,0.57 20.96,-0.51 23.48,-1.6 21.45,0.42 21.5,0.9"
           stroke="#e8590c"
           stroke-width="2"
           fill="none"
           id="path6" /></g><g
         stroke-linecap="round"
         id="g10"><g
           transform="translate(163.88452,100.37244)"
           id="g7"><path
             d="M -1.04,-0.4 C 28.79,-14.61 149.41,-70.64 179.39,-85.1 M 0.62,-1.65 c 29.66,-14.56 148.45,-70.99 178.01,-85.13"
             stroke="#e8590c"
             stroke-width="2"
             fill="none"
             id="path7" /></g><g
           transform="translate(163.88452,100.37244)"
           id="g8"><path
             d="m 161.11,-68.95 c 5.16,-5.2 13.1,-12.03 17.52,-17.83 m -17.52,17.83 c 3.07,-3.03 7.61,-6.85 17.52,-17.83"
             stroke="#e8590c"
             stroke-width="2"
             fill="none"
             id="path8" /></g><g
           transform="translate(163.88452,100.37244)"
           id="g9"><path
             d="m 153.75,-84.39 c 7.65,0.03 18.05,-1.65 24.88,-2.39 m -24.88,2.39 c 4.54,0.12 10.55,-0.62 24.88,-2.39"
             stroke="#e8590c"
             stroke-width="2"
             fill="none"
             id="path9" /></g></g><g
         stroke-linecap="round"
         id="g14"><g
           transform="translate(224.67155,100.75868)"
           id="g11"><path
             d="m 0.35,0.97 c 30.08,-14.06 150.01,-72 180.23,-86.34 M -0.93,0.43 c 29.89,-13.87 150.02,-70.78 180.38,-84.89"
             stroke="#e8590c"
             stroke-width="2"
             fill="none"
             id="path10" /></g><g
           transform="translate(224.67155,100.75868)"
           id="g12"><path
             d="m 161.83,-66.74 c 7.16,-6.03 8.95,-9.66 17.62,-17.72 m -17.62,17.72 c 3.29,-4.45 7.47,-7.93 17.62,-17.72"
             stroke="#e8590c"
             stroke-width="2"
             fill="none"
             id="path11" /></g><g
           transform="translate(224.67155,100.75868)"
           id="g13"><path
             d="m 154.56,-82.21 c 9.25,-1.32 13.27,-0.21 24.89,-2.25 m -24.89,2.25 c 4.85,-0.95 10.65,-0.96 24.89,-2.25"
             stroke="#e8590c"
             stroke-width="2"
             fill="none"
             id="path12" /></g></g><g
         stroke-linecap="round"
         transform="translate(90.303519,221.39732)"
         id="g15"><path
           d="m 6.28,0.34 c 1.62,-0.54 4.54,-0.43 6.25,0.45 1.71,0.87 3.31,3.06 4.01,4.8 0.7,1.75 0.78,4.03 0.18,5.66 -0.6,1.63 -2.31,3.19 -3.8,4.12 -1.49,0.92 -3.29,1.64 -5.13,1.44 C 5.94,16.61 3.22,15.49 1.86,14.16 0.49,12.84 -0.44,10.71 -0.39,8.88 -0.33,7.05 1.04,4.7 2.2,3.17 3.36,1.64 5.78,0.15 6.58,-0.31 7.38,-0.77 6.94,0.28 7,0.41 M 11.05,0.4 c 1.74,0.41 2.66,1.84 3.75,3.23 1.09,1.4 2.91,3.52 2.78,5.14 -0.12,1.61 -2.16,3.32 -3.52,4.53 -1.36,1.22 -3.05,2.35 -4.63,2.77 C 7.85,16.49 6.01,16.82 4.57,15.82 3.14,14.82 1.45,12 0.82,10.08 0.19,8.17 0.18,5.97 0.82,4.32 1.46,2.68 3.03,0.79 4.66,0.21 c 1.64,-0.58 4.91,0.56 5.95,0.64 1.04,0.08 0.4,-0.09 0.3,-0.18"
           stroke="none"
           stroke-width="0"
           fill="#b2f2bb"
           id="path14" /><path
           d="m 7.53,0.26 c 1.79,-0.35 4.5,-0.07 5.98,0.9 1.47,0.97 2.42,3.15 2.86,4.93 0.44,1.77 0.48,4.14 -0.22,5.72 -0.69,1.58 -2.32,3.02 -3.95,3.77 -1.62,0.75 -3.96,1.18 -5.8,0.73 C 4.57,15.87 2.16,14.24 1.17,12.9 0.17,11.57 0.22,10.08 0.45,8.29 0.68,6.5 1.22,3.6 2.54,2.17 3.87,0.74 7.43,0.12 8.38,-0.28 9.33,-0.68 8.34,-0.42 8.24,-0.23 M 8.75,0.2 c 1.64,-0.26 3.29,0.08 4.7,1.08 1.42,0.99 3.46,3.05 3.79,4.89 0.34,1.83 -0.78,4.47 -1.78,6.14 -1,1.67 -2.56,3.17 -4.22,3.88 C 9.57,16.89 7.05,17 5.47,16.55 3.89,16.1 2.71,15 1.75,13.49 0.79,11.98 -0.49,9.51 -0.29,7.5 -0.09,5.49 1.42,2.72 2.94,1.42 4.45,0.12 7.97,0.03 8.81,-0.29 9.64,-0.6 8.06,-0.59 7.95,-0.46"
           stroke="#1e1e1e"
           stroke-width="2"
           fill="none"
           id="path15" /></g><g
         stroke-linecap="round"
         id="g17"><g
           transform="translate(99.03192,241.80792)"
           id="g16"><path
             d="m -0.27,0.24 c 0.11,2.87 1,14.59 1.27,17.57 M 0.59,-0.12 C 0.61,3.04 0.51,15.11 0.62,18.24"
             stroke="#1e1e1e"
             stroke-width="2"
             fill="none"
             id="path16" /></g></g><g
         stroke-linecap="round"
         transform="translate(96.145507,262.16171)"
         id="g18"><path
           d="M 3.61,0.11 C 4.3,0.17 5.53,0.69 6.05,1.18 6.58,1.67 6.71,2.3 6.76,3.04 6.81,3.77 6.83,5.03 6.37,5.59 5.91,6.15 4.73,6.22 4.01,6.4 3.28,6.57 2.65,6.93 2.04,6.65 1.43,6.36 0.67,5.43 0.33,4.69 -0.02,3.96 -0.24,2.94 -0.03,2.23 0.17,1.52 0.97,0.86 1.55,0.46 2.14,0.07 3.09,-0.07 3.48,-0.15 3.88,-0.22 3.88,-0.06 3.92,0 M 3.76,0.46 C 4.62,0.41 5.76,0.25 6.21,0.7 6.66,1.14 6.37,2.41 6.44,3.12 6.52,3.82 6.97,4.42 6.66,4.94 6.36,5.47 5.34,6.1 4.6,6.29 3.86,6.48 2.88,6.25 2.22,6.07 1.57,5.89 0.94,5.88 0.66,5.23 0.38,4.57 0.5,2.81 0.54,2.13 0.58,1.46 0.32,1.58 0.89,1.17 1.47,0.75 3.51,-0.25 3.99,-0.36 4.46,-0.48 3.81,0.41 3.73,0.47"
           stroke="none"
           stroke-width="0"
           fill="#b2f2bb"
           id="path17" /><path
           d="M 3.56,-0.07 C 4.23,-0.12 4.98,0.37 5.47,0.88 5.96,1.38 6.43,2.24 6.53,2.95 6.62,3.67 6.36,4.55 6.03,5.18 5.7,5.81 5.22,6.54 4.55,6.72 3.89,6.9 2.79,6.57 2.04,6.25 1.3,5.94 0.38,5.42 0.09,4.82 -0.19,4.22 0.12,3.34 0.33,2.67 0.55,2 0.8,1.25 1.37,0.81 1.93,0.38 3.32,0.14 3.72,0.06 4.12,-0.03 3.71,0.27 3.75,0.3 m 0.04,-0.76 c 0.64,0 1.59,0.37 2.09,1.01 0.49,0.65 0.88,2.12 0.87,2.86 0,0.74 -0.43,1.1 -0.89,1.56 C 5.39,5.43 4.62,6.01 3.96,6.19 3.3,6.37 2.48,6.29 1.88,6.04 1.28,5.8 0.61,5.39 0.37,4.73 0.14,4.06 0.29,2.67 0.47,2.05 0.65,1.42 0.92,1.38 1.44,0.96 1.95,0.55 3.19,-0.39 3.56,-0.46 3.93,-0.52 3.61,0.39 3.65,0.56"
           stroke="#1e1e1e"
           stroke-width="2"
           fill="none"
           id="path18" /></g><g
         stroke-linecap="round"
         id="g20"><g
           transform="translate(123.78325,245.0728)"
           id="g19"><path
             d="M -0.81,-0.4 C -4.18,2.5 -16.36,14.85 -19.35,17.81 M 0.96,-1.66 C -2.68,0.87 -17.17,12.68 -20.58,16.1"
             stroke="#1e1e1e"
             stroke-width="2"
             fill="none"
             id="path19" /></g></g><g
         stroke-linecap="round"
         id="g22"><g
           transform="translate(94.223781,263.86415)"
           id="g21"><path
             d="m 0.6,-0.88 c -3.49,-2.48 -17.73,-12.16 -20.97,-14.9 M -0.54,1.28 c -3.17,-2.74 -14.47,-15.81 -17.6,-18.74"
             stroke="#1e1e1e"
             stroke-width="2"
             fill="none"
             id="path20" /></g></g><g
         stroke-linecap="round"
         id="g24"><g
           transform="translate(122.16132,288.93127)"
           id="g23"><path
             d="m -0.09,0.42 c -3.08,-2.91 -14.94,-15.41 -18.3,-18.06 m 16.8,17.23 c -3.16,-2.77 -14.49,-13.42 -17.19,-16.24"
             stroke="#1e1e1e"
             stroke-width="2"
             fill="none"
             id="path22" /></g></g><g
         stroke-linecap="round"
         id="g26"><g
           transform="translate(79.421438,290.68778)"
           id="g25"><path
             d="M 1.04,0.33 C 3.68,-2.39 13.41,-14.05 16.08,-17.16 M 0.13,-0.55 c 2.97,-3.01 15.42,-15.7 18.11,-18.51"
             stroke="#1e1e1e"
             stroke-width="2"
             fill="none"
             id="path24" /></g></g><g
         stroke-linecap="round"
         id="g30"><g
           transform="translate(112.90708,173.53355)"
           id="g27"><path
             d="m -0.35,-0.14 c 0.29,-7.3 1.55,-36.41 1.93,-43.62 M 0.47,-0.69 c 0.24,-7.24 0.48,-35.54 0.69,-42.56"
             stroke="#e8590c"
             stroke-width="2"
             fill="none"
             id="path26" /></g><g
           transform="translate(112.90708,173.53355)"
           id="g28"><path
             d="M 8.22,-22.71 C 6.1,-28.06 3.86,-32.88 1.16,-43.25 m 7.06,20.54 C 6.28,-28.69 3.73,-34.87 1.16,-43.25"
             stroke="#e8590c"
             stroke-width="2"
             fill="none"
             id="path27" /></g><g
           transform="translate(112.90708,173.53355)"
           id="g29"><path
             d="m -6.63,-22.98 c 1.78,-5.23 3.44,-9.98 7.79,-20.27 m -7.79,20.27 c 2.55,-5.84 4.49,-11.94 7.79,-20.27"
             stroke="#e8590c"
             stroke-width="2"
             fill="none"
             id="path28" /></g></g><g
         stroke-linecap="round"
         id="g34"><g
           transform="translate(131.94599,189.68841)"
           id="g31"><path
             d="M 0.45,-0.06 C 0.83,-7.85 1.5,-39.27 1.87,-47.1 M 0.01,-0.57 c 0.61,-7.66 2.52,-38.2 2.94,-45.84"
             stroke="#e8590c"
             stroke-width="2"
             fill="none"
             id="path30" /></g><g
           transform="translate(131.94599,189.68841)"
           id="g32"><path
             d="m 9.68,-23.84 c -1.51,-5.45 -2.94,-9 -6.73,-22.57 m 6.73,22.57 C 7.32,-30.78 5.22,-37.41 2.95,-46.41"
             stroke="#e8590c"
             stroke-width="2"
             fill="none"
             id="path31" /></g><g
           transform="translate(131.94599,189.68841)"
           id="g33"><path
             d="m -6.41,-24.8 c 2.03,-5.3 4.13,-8.65 9.36,-21.61 m -9.36,21.61 c 2.51,-6.73 5.28,-13.07 9.36,-21.61"
             stroke="#e8590c"
             stroke-width="2"
             fill="none"
             id="path32" /></g></g><g
         stroke-linecap="round"
         id="g36"><g
           transform="translate(126.20581,249.07894)"
           id="g35"><path
             d="M -0.33,0.17 C 0.46,-4.54 3.52,-23.35 4.41,-28.06 M 0.5,-0.22 c 0.98,-4.67 4.22,-22.74 4.92,-27.33"
             stroke="#1e1e1e"
             stroke-width="2"
             fill="none"
             id="path34" /></g></g><g
         stroke-linecap="round"
         id="g38"><g
           transform="translate(117.82812,244.24566)"
           id="g37"><path
             d="m 0,0.5 c 5.51,-2.26 27.53,-11.66 33,-14 M -0.66,0.28 C 5.03,-2.14 28.3,-11.83 34.06,-14.28"
             stroke="#1e1e1e"
             stroke-width="2"
             fill="none"
             id="path36" /></g></g><g
         stroke-linecap="round"
         id="g40"><g
           transform="translate(153.27219,157.89105)"
           id="g39"><path
             d="M -0.39,-0.17 C -0.95,5.54 -3.17,28.52 -3.74,34.29 M 0.42,-0.73 C -0.16,4.8 -3.28,27.68 -4.03,33.4"
             stroke="#f08c00"
             stroke-width="2"
             fill="none"
             id="path38" /></g></g><g
         stroke-linecap="round"
         id="g42"><g
           transform="translate(157.81577,243.89765)"
           id="g41"><path
             d="m 0.76,-0.21 c -2.69,2.91 -12.43,9.38 -15.82,17.8 -3.4,8.42 -3.74,27.43 -4.56,32.72 M -0.3,-1.36 c -2.9,2.54 -12.11,8.77 -15.4,17.08 -3.29,8.31 -3.68,26.99 -4.32,32.78"
             stroke="#f08c00"
             stroke-width="2"
             fill="none"
             id="path40" /></g></g><g
         stroke-opacity="0.9"
         fill-opacity="0.9"
         stroke-linecap="round"
         transform="translate(10,10)"
         id="g43"><path
           d="m 15,0 c 128.39,-0.25 261.56,1.48 387.8,0 10.37,-1.25 16.61,7.43 15,15 -1.36,11.15 -2.02,19.11 0,30 -0.82,7.06 -3.87,14.79 -15,15 C 273.2,62.64 146.41,61.7 15,60 2.96,60.86 -3.4,58.24 0,45 2.2,35.02 1.87,31.13 0,15 -1.46,4.03 7.57,-2.52 15,0"
           stroke="none"
           stroke-width="0"
           fill="#a5d8ff"
           id="path42" /><path
           d="M 15,0 C 131.25,1.37 247.99,1.56 402.8,0 M 15,0 c 78.66,-0.99 158.62,-0.7 387.8,0 m 0,0 c 9.09,0.4 13.79,3.22 15,15 m -15,-15 c 11.05,1.21 17.22,5.45 15,15 m 0,0 c -1.27,6.39 -1.14,15.9 0,30 m 0,-30 c 0.22,9.71 0.33,18.89 0,30 m 0,0 c -0.99,10.89 -3.51,14.72 -15,15 m 15,-15 c -1.32,11.44 -6.94,16.3 -15,15 m 0,0 C 276.25,60.72 149.12,61.22 15,60 m 387.8,0 C 301.14,61.34 199.13,61.36 15,60 m 0,0 C 6.81,61.32 0.2,56.9 0,45 M 15,60 C 7.14,58.38 -0.59,55.49 0,45 m 0,0 C 1.42,38.42 2,28.55 0,15 M 0,45 C 0.41,33.74 0.85,22.61 0,15 m 0,0 C 1.08,5.21 3.84,0.85 15,0 M 0,15 C -1.84,5.55 5.82,-1.43 15,0"
           stroke="#1971c2"
           stroke-width="2"
           fill="none"
           id="path43" /></g><g
         stroke-opacity="0.9"
         fill-opacity="0.9"
         transform="translate(142.4001,27.5)"
         id="g44"><text
           x="76.5"
           y="17.52"
           font-family="Virgil, 'Segoe UI Emoji'"
           font-size="20px"
           fill="#1971c2"
           text-anchor="middle"
           style="white-space:pre"
           direction="ltr"
           dominant-baseline="alphabetic"
           id="text43">Comfy Catapult</text></g></g></g></svg>
